<svg xmlns="http://www.w3.org/2000/svg" width="21.204" height="21.204" viewBox="0 0 21.204 21.204"><defs><style>.a{fill:#3be4c1;}</style></defs><path class="a" d="M21.2,33.169V52.03A1.169,1.169,0,0,1,20.035,53.2H14.63V44.992h2.755l.412-3.2H14.625V39.748c0-.928.256-1.557,1.586-1.557H17.9V35.327a22.78,22.78,0,0,0-2.471-.128,3.858,3.858,0,0,0-4.118,4.231v2.362H8.552v3.2h2.764V53.2H1.169A1.172,1.172,0,0,1,0,52.035V33.169A1.172,1.172,0,0,1,1.169,32H20.03A1.173,1.173,0,0,1,21.2,33.169Z" transform="translate(0 -32)"/></svg>