<svg xmlns="http://www.w3.org/2000/svg" width="26.723" height="21.204" viewBox="0 0 26.723 21.204"><defs><style>.a{fill:#3be4c1;}</style></defs><path class="a" d="M17.366,68.326a1.043,1.043,0,0,0-.337-.873l-2.492-3.005V64h7.746l5.989,13.132L33.536,64h7.386v.447L38.79,66.492a.622.622,0,0,0-.238.6V82.115a.622.622,0,0,0,.238.6l2.083,2.044V85.2H30.393v-.448l2.16-2.094c.21-.21.21-.276.21-.6V69.922L26.758,85.165h-.812L18.962,69.922V80.138a1.391,1.391,0,0,0,.387,1.171l2.807,3.4v.447H14.2v-.442l2.807-3.409a1.346,1.346,0,0,0,.359-1.171Z" transform="translate(-14.2 -64)"/></svg>