<svg xmlns="http://www.w3.org/2000/svg" width="21.204" height="17.222" viewBox="0 0 21.204 17.222"><defs><style>.a{fill:#3be4c1;}</style></defs><path class="a" d="M19.024,52.374c.013.188.013.377.013.565A12.28,12.28,0,0,1,6.673,65.3,12.281,12.281,0,0,1,0,63.352a8.988,8.988,0,0,0,1.049.054,8.7,8.7,0,0,0,5.4-1.857,4.353,4.353,0,0,1-4.063-3.014A5.481,5.481,0,0,0,3.2,58.6a4.6,4.6,0,0,0,1.144-.148A4.346,4.346,0,0,1,.861,54.19v-.054a4.376,4.376,0,0,0,1.964.552A4.352,4.352,0,0,1,1.48,48.876a12.352,12.352,0,0,0,8.96,4.548,4.906,4.906,0,0,1-.108-1,4.35,4.35,0,0,1,7.521-2.973A8.556,8.556,0,0,0,20.612,48.4,4.334,4.334,0,0,1,18.7,50.8a8.712,8.712,0,0,0,2.5-.673A9.341,9.341,0,0,1,19.024,52.374Z" transform="translate(0 -48.082)"/></svg>